<?xml version="1.0" encoding="utf-8"?>
<!-- Generator: Adobe Illustrator 21.1.0, SVG Export Plug-In . SVG Version: 6.00 Build 0)  -->
<!DOCTYPE svg PUBLIC "-//W3C//DTD SVG 1.1//EN" "http://www.w3.org/Graphics/SVG/1.1/DTD/svg11.dtd">
<svg version="1.1" id="Layer_1" xmlns="http://www.w3.org/2000/svg" xmlns:xlink="http://www.w3.org/1999/xlink" x="0px" y="0px"
	 viewBox="0 0 595.3 78" style="enable-background:new 0 0 595.3 78;" xml:space="preserve">
<style type="text/css">
	.st0{fill:#DCA646;}
	.st1{fill:#8E9090;}
</style>
<g>
	<polygon class="st0" points="517.2,47.8 511.7,39.1 517.2,30.5 521.4,30.5 515.6,39.1 521.4,47.8 	"/>
	<polygon class="st0" points="524.8,45 521,39.1 524.8,33.2 527.7,33.2 523.7,39.1 527.7,45 	"/>
	<polygon class="st0" points="496.1,47.8 501.9,39.1 496.1,30.5 500.3,30.5 505.8,39.1 500.3,47.8 	"/>
	<polygon class="st0" points="489.8,45 493.8,39.1 489.8,33.2 492.7,33.2 496.5,39.1 492.7,45 	"/>
</g>
<g>
	<path class="st1" d="M77,48.3c-5.4,0-8.8-3.8-8.8-9.4c0-5.7,3.5-9.6,8.8-9.6c2.2,0,3.9,0.5,5.3,1.4l-0.5,3c-1.3-1-2.8-1.7-4.7-1.7
		c-3.5,0-5.6,2.6-5.6,6.8c0,4.1,2.1,6.8,5.6,6.8c1.8,0,3.5-0.7,4.9-1.7l0.4,2.8C81.1,47.7,79.2,48.3,77,48.3z"/>
	<path class="st1" d="M98.7,48.3c-4.7,0-8.8-3.6-8.8-9.5c0-5.9,4.1-9.5,8.8-9.5c4.7,0,8.8,3.5,8.8,9.5
		C107.5,44.7,103.4,48.3,98.7,48.3z M98.7,32.1c-3.5,0-5.5,2.9-5.5,6.7c0,3.7,2.1,6.8,5.5,6.8c3.4,0,5.4-3,5.4-6.7
		C104.2,35.1,102,32.1,98.7,32.1z"/>
	<path class="st1" d="M116.4,48V29.7h3.2v15.5h6.9L127,48H116.4z"/>
	<path class="st1" d="M135.5,48V29.7h3.2v15.5h6.9l0.5,2.8H135.5z"/>
	<path class="st1" d="M165.9,48l-0.4-2.5c-1.5,1.5-3.4,2.8-6.4,2.8c-3.3,0-5.4-2-5.4-5.1c0-4.6,3.9-6.4,11.5-7.2v-0.8
		c0-2.3-1.4-3.1-3.5-3.1c-2.2,0-4.3,0.7-6.3,1.6l-0.5-2.9c2.2-0.9,4.3-1.5,7.1-1.5c4.4,0,6.6,1.8,6.6,5.9V48H165.9z M165.2,38.7
		c-6.7,0.7-8.2,2.5-8.2,4.4c0,1.5,1,2.5,2.7,2.5c2,0,3.9-1,5.4-2.6V38.7z"/>
	<path class="st1" d="M184.7,48h-5.9V29.7h5.9c4.1,0,6.1,1.9,6.1,4.6c0,2.1-1.1,3.3-2.6,4c2.1,0.6,3.5,1.9,3.5,4.3
		C191.6,46.3,188.9,48,184.7,48z M184.6,32.4h-2.7v4.7h2.6c2.2,0,3.3-0.9,3.3-2.5C187.8,33.2,186.8,32.4,184.6,32.4z M184.8,39.7
		h-2.9v5.6h2.9c2.3,0,3.8-0.8,3.8-2.7C188.6,40.7,187.3,39.7,184.8,39.7z"/>
	<path class="st1" d="M207.5,48.3c-4.7,0-8.8-3.6-8.8-9.5c0-5.9,4.1-9.5,8.8-9.5c4.7,0,8.8,3.5,8.8,9.5
		C216.2,44.7,212.1,48.3,207.5,48.3z M207.5,32.1c-3.5,0-5.5,2.9-5.5,6.7c0,3.7,2.1,6.8,5.5,6.8c3.4,0,5.4-3,5.4-6.7
		C212.9,35.1,210.8,32.1,207.5,32.1z"/>
	<path class="st1" d="M235.6,48.2l-5.3-7.3h-2V48h-3.2V29.7h5.7c4.2,0,6.9,2,6.9,5.6c0,2.7-1.5,4.4-3.8,5.2l5.2,6.9L235.6,48.2z
		 M230.7,32.5h-2.4v5.9h2.4c2.3,0,3.7-1.1,3.7-3C234.4,33.5,233.1,32.5,230.7,32.5z"/>
	<path class="st1" d="M258.1,48l-0.4-2.5c-1.5,1.5-3.4,2.8-6.4,2.8c-3.3,0-5.4-2-5.4-5.1c0-4.6,3.9-6.4,11.5-7.2v-0.8
		c0-2.3-1.4-3.1-3.5-3.1c-2.2,0-4.3,0.7-6.3,1.6l-0.5-2.9c2.2-0.9,4.3-1.5,7.1-1.5c4.4,0,6.6,1.8,6.6,5.9V48H258.1z M257.5,38.7
		c-6.7,0.7-8.2,2.5-8.2,4.4c0,1.5,1,2.5,2.7,2.5c2,0,3.9-1,5.4-2.6V38.7z"/>
	<path class="st1" d="M278.3,32.6V48h-3.3V32.6h-5.7v-2.9h14.6l0.4,2.9H278.3z"/>
	<path class="st1" d="M292.6,48V29.7h3.3V48H292.6z"/>
	<path class="st1" d="M313.7,48.3c-4.7,0-8.8-3.6-8.8-9.5c0-5.9,4.1-9.5,8.8-9.5c4.7,0,8.8,3.5,8.8,9.5
		C322.5,44.7,318.4,48.3,313.7,48.3z M313.7,32.1c-3.5,0-5.5,2.9-5.5,6.7c0,3.7,2.1,6.8,5.5,6.8c3.4,0,5.4-3,5.4-6.7
		C319.2,35.1,317,32.1,313.7,32.1z"/>
	<path class="st1" d="M343.5,48l-9.2-13.5V48h-3V29.7h3.2l8.8,12.9V29.7h3V48H343.5z"/>
	<path class="st1" d="M385.6,48.1h-3.1l-4.3-14.4l-4.4,14.4h-3.1l-5.4-18l3.3-0.7l3.7,14.1l4.1-13.8h3.5l4.1,13.8l3.7-13.8h3.1
		L385.6,48.1z"/>
	<path class="st1" d="M399.4,48V29.7h3.3V48H399.4z"/>
	<path class="st1" d="M424.8,48l-9.2-13.5V48h-3V29.7h3.2l8.8,12.9V29.7h3V48H424.8z"/>
	<path class="st1" d="M452.4,39.2H440c0.1,4.2,2.1,6.2,5.3,6.2c2.6,0,4.6-1,6.5-2.6l0.5,3.1c-2,1.5-4.3,2.5-7.3,2.5
		c-4.7,0-8.5-2.9-8.5-9.6c0-5.9,3.4-9.5,8-9.5c5.3,0,7.8,4.1,7.8,9.1C452.4,38.6,452.4,39,452.4,39.2z M444.6,32
		c-2.1,0-3.9,1.5-4.4,4.6h8.8C448.5,33.7,447.2,32,444.6,32z"/>
	<path class="st1" d="M466.6,48.2c-2.2,0-4.4-0.6-6.3-1.4l0.5-2.9c1.7,0.9,4.1,1.6,5.9,1.6c2.1,0,3.6-0.9,3.6-2.5c0-1.5-1-2.1-3.6-3
		c-3.8-1.3-5.8-2.5-5.8-5.4c0-3.1,2.6-5.3,6.1-5.3c2.1,0,3.9,0.5,5.3,1.1l-0.5,3c-1.7-0.9-3.3-1.4-4.9-1.4c-1.8,0-3,1-3,2.2
		c0,1.4,1,1.9,3.9,2.9c3.8,1.3,5.5,2.6,5.5,5.5C473.3,46,470.6,48.2,466.6,48.2z"/>
</g>
</svg>
